<?xml version="1.0" encoding="UTF-8" standalone="no"?>
<!DOCTYPE svg PUBLIC "-//W3C//DTD SVG 1.1//EN" "http://www.w3.org/Graphics/SVG/1.1/DTD/svg11.dtd">
<svg xmlns="http://www.w3.org/2000/svg" version="1.1" viewBox="0.00 0.00 1024.00 1024.00">
<clipPath id="clipping-path-0">
<path d="
  M 0.00 0.00
  L 1024.00 0.00
  L 1024.00 1024.00
  L 0.00 1024.00
  L 0.00 0.00
  Z"/>
</clipPath>
<g stroke-width="2.00" fill="none" stroke-linecap="butt" clip-path="url(#clipping-path-0)">
<path stroke="#7f8990" vector-effect="non-scaling-stroke" d="
  M 460.57 632.07
  L 501.26 632.01
  Q 501.75 632.01 501.78 631.52
  Q 501.83 630.60 501.83 629.73
  Q 502.17 428.15 501.95 190.09
  Q 501.94 189.46 501.32 189.46
  L 380.25 189.48
  Q 379.46 189.48 378.94 190.06
  L 352.01 219.77
  A 0.13 0.13 0.0 0 0 352.11 219.98
  L 435.74 220.02
  A 0.35 0.35 0.0 0 1 436.09 220.37
  Q 435.94 402.43 436.01 593.76
  Q 436.02 610.49 435.87 613.74
  C 434.57 642.48 426.83 673.96 402.70 692.04
  C 387.22 703.64 366.28 706.80 348.02 699.61
  C 324.60 690.38 312.85 666.47 312.51 641.91
  Q 312.22 620.87 312.30 600.34
  A 0.56 0.56 0.0 0 0 311.74 599.78
  L 285.28 599.72
  Q 284.71 599.72 284.71 600.29
  Q 284.84 621.58 284.70 639.59
  Q 284.61 649.93 285.48 656.94
  C 288.56 681.74 300.80 703.21 321.02 717.71
  Q 333.50 726.67 347.63 730.03
  C 377.10 737.03 407.36 728.59 429.07 707.57
  C 449.07 688.21 459.22 661.32 459.77 632.85
  Q 459.79 632.07 460.57 632.07"
/>
<path stroke="#7f8990" vector-effect="non-scaling-stroke" d="
  M 567.47 285.26
  C 580.98 254.61 606.34 230.86 638.35 220.64
  C 663.31 212.67 690.46 213.53 714.80 223.44
  C 750.88 238.14 778.97 270.34 785.54 309.43
  A 1.17 1.16 -4.4 0 0 786.68 310.40
  L 814.55 310.70
  A 1.04 1.04 0.0 0 0 815.59 309.51
  C 806.10 245.66 750.08 189.29 684.10 189.41
  Q 606.75 189.54 532.50 189.41
  Q 531.96 189.41 531.96 189.95
  L 531.96 309.94
  Q 531.96 310.43 532.44 310.43
  L 559.36 310.48
  Q 560.04 310.48 560.17 309.82
  C 561.86 301.32 563.94 293.26 567.47 285.26"
/>
<path stroke="#7f8990" vector-effect="non-scaling-stroke" d="
  M 713.99 256.82
  C 666.16 229.55 603.46 255.64 591.03 309.86
  Q 590.89 310.47 591.51 310.47
  L 618.83 310.46
  Q 619.36 310.46 619.63 310.00
  C 621.03 307.68 622.07 305.08 623.45 302.71
  C 634.08 284.47 652.76 273.95 673.82 274.49
  C 694.69 275.03 713.12 286.97 722.14 306.27
  Q 723.02 308.15 723.99 310.02
  Q 724.24 310.51 724.78 310.51
  L 753.49 310.47
  A 0.64 0.64 0.0 0 0 754.12 309.69
  C 749.25 287.49 733.39 267.88 713.99 256.82"
/>
<path stroke="#7f8990" vector-effect="non-scaling-stroke" d="
  M 363.92 353.80
  Q 364.68 353.07 365.45 353.80
  L 383.25 370.68
  A 3.08 3.07 21.8 0 1 384.21 372.91
  Q 384.30 425.19 384.18 471.20
  Q 384.16 478.63 389.27 482.98
  C 393.56 486.62 400.46 487.52 405.02 484.34
  Q 411.67 479.72 411.68 471.31
  Q 411.73 419.63 411.82 369.91
  C 411.83 362.79 410.40 357.21 405.51 352.20
  Q 398.47 344.99 378.59 326.52
  C 377.14 325.17 375.91 323.39 375.67 321.36
  Q 373.82 305.69 360.46 294.92
  Q 347.32 284.32 330.45 286.83
  C 314.77 289.16 303.33 300.13 298.94 315.35
  C 295.16 328.43 299.28 343.75 308.87 353.33
  Q 316.89 361.35 324.74 363.47
  Q 347.48 369.62 363.92 353.80"
/>
<path stroke="#7f8990" vector-effect="non-scaling-stroke" d="
  M 709.03 342.02
  Q 695.65 340.80 690.54 351.05
  C 688.18 355.80 688.70 361.33 691.70 365.62
  C 696.36 372.28 703.71 372.80 711.47 372.06
  Q 714.62 371.76 718.00 371.76
  Q 764.21 371.81 815.48 371.87
  A 0.61 0.61 0.0 0 0 816.09 371.26
  L 816.11 343.05
  Q 816.11 342.45 815.52 342.45
  Q 766.95 342.45 718.30 342.44
  Q 713.72 342.44 709.03 342.02"
/>
<path stroke="#7f8990" vector-effect="non-scaling-stroke" d="
  M 730.22 537.53
  Q 719.31 532.97 707.96 529.18
  Q 682.04 520.52 654.69 511.19
  C 634.43 504.28 614.94 493.97 599.63 479.94
  C 572.88 455.44 559.47 422.00 559.47 385.74
  Q 559.47 364.56 559.75 343.03
  Q 559.75 342.51 559.24 342.51
  L 532.46 342.42
  Q 532.00 342.42 532.00 342.88
  Q 531.87 425.28 531.97 498.52
  C 531.98 499.53 532.19 500.53 532.91 501.28
  Q 556.89 526.25 589.03 543.06
  Q 600.99 549.32 614.88 554.90
  Q 638.03 564.20 663.33 573.28
  Q 672.22 576.48 681.48 580.40
  C 706.70 591.08 727.89 607.43 741.31 631.44
  Q 741.57 631.92 742.12 631.92
  L 815.33 632.03
  A 0.50 0.50 0.0 0 0 815.82 631.44
  C 813.23 617.56 805.38 602.94 796.98 590.85
  Q 772.09 555.00 730.22 537.53"
/>
<path stroke="#7f8990" vector-effect="non-scaling-stroke" d="
  M 751.52 480.86
  Q 736.08 474.81 722.30 470.29
  Q 692.26 460.42 668.02 451.67
  Q 658.99 448.42 650.11 442.96
  C 629.47 430.28 618.32 408.39 618.29 383.98
  Q 618.27 363.87 618.05 343.08
  Q 618.04 342.51 617.47 342.51
  L 590.77 342.43
  Q 590.19 342.43 590.18 343.01
  Q 589.66 379.38 590.45 393.37
  C 592.31 426.53 609.76 454.25 639.23 470.27
  Q 647.92 474.99 656.76 478.21
  C 684.98 488.49 714.65 497.55 741.58 508.46
  Q 767.60 519.01 789.37 537.04
  C 799.16 545.14 807.99 555.31 815.82 565.23
  Q 816.35 565.91 816.35 565.05
  L 816.27 519.91
  Q 816.27 518.88 815.48 518.22
  Q 787.64 495.00 751.52 480.86"
/>
<path stroke="#7f8990" vector-effect="non-scaling-stroke" d="
  M 259.1642 562.1476
  A 39.35 38.76 81.4 0 0 291.6042 517.4440
  A 39.35 38.76 81.4 0 0 247.3958 484.3324
  A 39.35 38.76 81.4 0 0 214.9558 529.0360
  A 39.35 38.76 81.4 0 0 259.1642 562.1476"
/>
<path stroke="#7f8990" vector-effect="non-scaling-stroke" d="
  M 365.09 552.64
  L 383.08 569.66
  A 3.96 3.95 -68.2 0 1 384.32 572.56
  Q 384.24 593.14 384.17 612.50
  Q 384.16 614.92 382.79 616.51
  Q 377.71 622.37 372.65 628.25
  A 1.28 1.26 -62.0 0 1 371.37 628.65
  C 365.44 627.10 358.66 628.49 353.74 632.01
  C 339.02 642.56 341.58 665.75 358.16 672.86
  C 372.50 679.02 388.46 670.19 390.08 654.76
  C 390.33 652.35 391.95 650.33 393.53 648.59
  Q 398.52 643.10 403.63 637.38
  C 409.49 630.82 411.63 624.54 411.61 615.51
  Q 411.57 595.97 411.78 576.64
  Q 411.89 566.32 411.23 562.44
  Q 409.96 554.92 403.06 548.53
  Q 393.26 539.45 383.35 530.29
  Q 380.55 527.70 378.20 524.69
  Q 377.95 524.37 377.95 523.97
  Q 377.66 503.41 361.63 491.33
  C 346.04 479.58 322.62 482.28 309.77 496.73
  C 296.86 511.25 296.50 533.43 308.99 548.48
  C 314.69 555.34 323.43 560.91 332.46 562.04
  Q 351.73 564.47 364.04 552.64
  Q 364.56 552.14 365.09 552.64"
/>
<path stroke="#7f8990" vector-effect="non-scaling-stroke" d="
  M 241.88 719.78
  Q 248.42 734.67 259.71 750.71
  Q 260.04 751.19 260.35 750.70
  C 266.49 740.89 274.81 733.02 284.63 726.59
  A 0.74 0.74 0.0 0 0 284.79 725.49
  C 265.45 703.01 254.57 675.89 254.35 646.27
  Q 254.18 624.07 254.51 600.31
  Q 254.51 599.77 253.98 599.77
  L 227.77 599.65
  Q 227.25 599.64 227.24 600.17
  Q 226.69 630.38 227.40 655.10
  Q 228.39 689.08 241.88 719.78"
/>
<path stroke="#7f8990" vector-effect="non-scaling-stroke" d="
  M 673.26 672.89
  Q 670.68 678.22 672.78 684.31
  Q 675.69 692.74 686.10 694.87
  Q 689.05 695.47 691.80 694.78
  C 695.43 693.88 698.95 692.95 702.80 692.95
  Q 757.96 692.82 815.47 693.01
  A 0.81 0.81 0.0 0 0 816.28 692.19
  L 816.12 664.32
  Q 816.11 663.74 815.53 663.74
  Q 757.13 663.86 697.89 663.76
  C 694.60 663.75 691.17 662.95 687.98 663.20
  Q 677.53 664.04 673.26 672.89"
/>
<path stroke="#7f8990" vector-effect="non-scaling-stroke" d="
  M 554.61 693.29
  Q 560.43 692.96 566.66 692.97
  Q 586.23 693.00 607.55 692.94
  C 608.76 692.94 609.82 692.32 610.65 691.50
  Q 624.07 678.32 636.82 664.44
  A 0.39 0.38 21.0 0 0 636.53 663.80
  L 485.49 663.85
  Q 484.99 663.85 484.88 664.34
  Q 475.86 704.25 446.66 731.92
  Q 417.20 759.84 376.79 762.05
  Q 368.95 762.47 360.00 762.28
  Q 334.59 761.73 310.00 761.84
  Q 303.19 761.87 298.55 762.79
  C 291.08 764.28 284.34 771.25 280.15 777.50
  A 1.09 1.08 -49.2 0 0 280.24 778.82
  C 302.68 803.86 334.29 820.64 367.06 824.90
  C 377.06 826.20 387.19 826.39 397.09 825.87
  Q 438.66 823.70 474.44 799.79
  C 510.61 775.62 538.82 737.47 553.19 696.94
  Q 553.71 695.47 553.97 693.87
  Q 554.06 693.32 554.61 693.29"
/>
<path stroke="#7f8990" vector-effect="non-scaling-stroke" d="
  M 728.35 723.84
  C 714.56 743.21 694.86 756.23 670.69 757.41
  Q 639.30 758.94 614.97 738.84
  Q 610.28 734.96 606.13 730.89
  A 0.51 0.50 -45.4 0 0 605.41 730.90
  Q 561.14 776.51 518.12 820.89
  Q 516.01 823.07 514.32 825.34
  Q 513.97 825.81 514.56 825.80
  Q 586.46 825.63 659.30 825.95
  Q 671.88 826.01 679.00 825.65
  Q 722.36 823.50 757.86 797.82
  Q 794.99 770.96 812.15 728.92
  Q 813.22 726.30 814.07 723.29
  A 0.45 0.44 3.3 0 0 813.57 722.73
  Q 811.79 723.00 809.82 722.99
  Q 769.68 722.84 730.19 722.89
  A 2.27 2.25 -72.1 0 0 728.35 723.84"
/>
<path stroke="#7f8990" vector-effect="non-scaling-stroke" d="
  M 333.4889 337.9462
  A 12.56 12.33 104.2 0 0 348.5233 328.7946
  A 12.56 12.33 104.2 0 0 339.6511 313.5938
  A 12.56 12.33 104.2 0 0 324.6167 322.7454
  A 12.56 12.33 104.2 0 0 333.4889 337.9462"
/>
<path stroke="#7f8990" vector-effect="non-scaling-stroke" d="
  M 251.2266 535.3267
  A 12.40 12.17 101.6 0 0 265.6414 525.6271
  A 12.40 12.17 101.6 0 0 256.2134 511.0333
  A 12.40 12.17 101.6 0 0 241.7986 520.7329
  A 12.40 12.17 101.6 0 0 251.2266 535.3267"
/>
<path stroke="#7f8990" vector-effect="non-scaling-stroke" d="
  M 350.93 523.15
  A 12.39 12.39 0.0 0 0 338.54 510.76
  A 12.39 12.39 0.0 0 0 326.15 523.15
  A 12.39 12.39 0.0 0 0 338.54 535.54
  A 12.39 12.39 0.0 0 0 350.93 523.15"
/>
</g>
<path fill="#001321" d="
  M 0.00 0.00
  L 1024.00 0.00
  L 1024.00 1024.00
  L 0.00 1024.00
  L 0.00 0.00
  Z
  M 460.57 632.07
  L 501.26 632.01
  Q 501.75 632.01 501.78 631.52
  Q 501.83 630.60 501.83 629.73
  Q 502.17 428.15 501.95 190.09
  Q 501.94 189.46 501.32 189.46
  L 380.25 189.48
  Q 379.46 189.48 378.94 190.06
  L 352.01 219.77
  A 0.13 0.13 0.0 0 0 352.11 219.98
  L 435.74 220.02
  A 0.35 0.35 0.0 0 1 436.09 220.37
  Q 435.94 402.43 436.01 593.76
  Q 436.02 610.49 435.87 613.74
  C 434.57 642.48 426.83 673.96 402.70 692.04
  C 387.22 703.64 366.28 706.80 348.02 699.61
  C 324.60 690.38 312.85 666.47 312.51 641.91
  Q 312.22 620.87 312.30 600.34
  A 0.56 0.56 0.0 0 0 311.74 599.78
  L 285.28 599.72
  Q 284.71 599.72 284.71 600.29
  Q 284.84 621.58 284.70 639.59
  Q 284.61 649.93 285.48 656.94
  C 288.56 681.74 300.80 703.21 321.02 717.71
  Q 333.50 726.67 347.63 730.03
  C 377.10 737.03 407.36 728.59 429.07 707.57
  C 449.07 688.21 459.22 661.32 459.77 632.85
  Q 459.79 632.07 460.57 632.07
  Z
  M 567.47 285.26
  C 580.98 254.61 606.34 230.86 638.35 220.64
  C 663.31 212.67 690.46 213.53 714.80 223.44
  C 750.88 238.14 778.97 270.34 785.54 309.43
  A 1.17 1.16 -4.4 0 0 786.68 310.40
  L 814.55 310.70
  A 1.04 1.04 0.0 0 0 815.59 309.51
  C 806.10 245.66 750.08 189.29 684.10 189.41
  Q 606.75 189.54 532.50 189.41
  Q 531.96 189.41 531.96 189.95
  L 531.96 309.94
  Q 531.96 310.43 532.44 310.43
  L 559.36 310.48
  Q 560.04 310.48 560.17 309.82
  C 561.86 301.32 563.94 293.26 567.47 285.26
  Z
  M 713.99 256.82
  C 666.16 229.55 603.46 255.64 591.03 309.86
  Q 590.89 310.47 591.51 310.47
  L 618.83 310.46
  Q 619.36 310.46 619.63 310.00
  C 621.03 307.68 622.07 305.08 623.45 302.71
  C 634.08 284.47 652.76 273.95 673.82 274.49
  C 694.69 275.03 713.12 286.97 722.14 306.27
  Q 723.02 308.15 723.99 310.02
  Q 724.24 310.51 724.78 310.51
  L 753.49 310.47
  A 0.64 0.64 0.0 0 0 754.12 309.69
  C 749.25 287.49 733.39 267.88 713.99 256.82
  Z
  M 363.92 353.80
  Q 364.68 353.07 365.45 353.80
  L 383.25 370.68
  A 3.08 3.07 21.8 0 1 384.21 372.91
  Q 384.30 425.19 384.18 471.20
  Q 384.16 478.63 389.27 482.98
  C 393.56 486.62 400.46 487.52 405.02 484.34
  Q 411.67 479.72 411.68 471.31
  Q 411.73 419.63 411.82 369.91
  C 411.83 362.79 410.40 357.21 405.51 352.20
  Q 398.47 344.99 378.59 326.52
  C 377.14 325.17 375.91 323.39 375.67 321.36
  Q 373.82 305.69 360.46 294.92
  Q 347.32 284.32 330.45 286.83
  C 314.77 289.16 303.33 300.13 298.94 315.35
  C 295.16 328.43 299.28 343.75 308.87 353.33
  Q 316.89 361.35 324.74 363.47
  Q 347.48 369.62 363.92 353.80
  Z
  M 709.03 342.02
  Q 695.65 340.80 690.54 351.05
  C 688.18 355.80 688.70 361.33 691.70 365.62
  C 696.36 372.28 703.71 372.80 711.47 372.06
  Q 714.62 371.76 718.00 371.76
  Q 764.21 371.81 815.48 371.87
  A 0.61 0.61 0.0 0 0 816.09 371.26
  L 816.11 343.05
  Q 816.11 342.45 815.52 342.45
  Q 766.95 342.45 718.30 342.44
  Q 713.72 342.44 709.03 342.02
  Z
  M 730.22 537.53
  Q 719.31 532.97 707.96 529.18
  Q 682.04 520.52 654.69 511.19
  C 634.43 504.28 614.94 493.97 599.63 479.94
  C 572.88 455.44 559.47 422.00 559.47 385.74
  Q 559.47 364.56 559.75 343.03
  Q 559.75 342.51 559.24 342.51
  L 532.46 342.42
  Q 532.00 342.42 532.00 342.88
  Q 531.87 425.28 531.97 498.52
  C 531.98 499.53 532.19 500.53 532.91 501.28
  Q 556.89 526.25 589.03 543.06
  Q 600.99 549.32 614.88 554.90
  Q 638.03 564.20 663.33 573.28
  Q 672.22 576.48 681.48 580.40
  C 706.70 591.08 727.89 607.43 741.31 631.44
  Q 741.57 631.92 742.12 631.92
  L 815.33 632.03
  A 0.50 0.50 0.0 0 0 815.82 631.44
  C 813.23 617.56 805.38 602.94 796.98 590.85
  Q 772.09 555.00 730.22 537.53
  Z
  M 751.52 480.86
  Q 736.08 474.81 722.30 470.29
  Q 692.26 460.42 668.02 451.67
  Q 658.99 448.42 650.11 442.96
  C 629.47 430.28 618.32 408.39 618.29 383.98
  Q 618.27 363.87 618.05 343.08
  Q 618.04 342.51 617.47 342.51
  L 590.77 342.43
  Q 590.19 342.43 590.18 343.01
  Q 589.66 379.38 590.45 393.37
  C 592.31 426.53 609.76 454.25 639.23 470.27
  Q 647.92 474.99 656.76 478.21
  C 684.98 488.49 714.65 497.55 741.58 508.46
  Q 767.60 519.01 789.37 537.04
  C 799.16 545.14 807.99 555.31 815.82 565.23
  Q 816.35 565.91 816.35 565.05
  L 816.27 519.91
  Q 816.27 518.88 815.48 518.22
  Q 787.64 495.00 751.52 480.86
  Z
  M 259.1642 562.1476
  A 39.35 38.76 81.4 0 0 291.6042 517.4440
  A 39.35 38.76 81.4 0 0 247.3958 484.3324
  A 39.35 38.76 81.4 0 0 214.9558 529.0360
  A 39.35 38.76 81.4 0 0 259.1642 562.1476
  Z
  M 365.09 552.64
  L 383.08 569.66
  A 3.96 3.95 -68.2 0 1 384.32 572.56
  Q 384.24 593.14 384.17 612.50
  Q 384.16 614.92 382.79 616.51
  Q 377.71 622.37 372.65 628.25
  A 1.28 1.26 -62.0 0 1 371.37 628.65
  C 365.44 627.10 358.66 628.49 353.74 632.01
  C 339.02 642.56 341.58 665.75 358.16 672.86
  C 372.50 679.02 388.46 670.19 390.08 654.76
  C 390.33 652.35 391.95 650.33 393.53 648.59
  Q 398.52 643.10 403.63 637.38
  C 409.49 630.82 411.63 624.54 411.61 615.51
  Q 411.57 595.97 411.78 576.64
  Q 411.89 566.32 411.23 562.44
  Q 409.96 554.92 403.06 548.53
  Q 393.26 539.45 383.35 530.29
  Q 380.55 527.70 378.20 524.69
  Q 377.95 524.37 377.95 523.97
  Q 377.66 503.41 361.63 491.33
  C 346.04 479.58 322.62 482.28 309.77 496.73
  C 296.86 511.25 296.50 533.43 308.99 548.48
  C 314.69 555.34 323.43 560.91 332.46 562.04
  Q 351.73 564.47 364.04 552.64
  Q 364.56 552.14 365.09 552.64
  Z
  M 241.88 719.78
  Q 248.42 734.67 259.71 750.71
  Q 260.04 751.19 260.35 750.70
  C 266.49 740.89 274.81 733.02 284.63 726.59
  A 0.74 0.74 0.0 0 0 284.79 725.49
  C 265.45 703.01 254.57 675.89 254.35 646.27
  Q 254.18 624.07 254.51 600.31
  Q 254.51 599.77 253.98 599.77
  L 227.77 599.65
  Q 227.25 599.64 227.24 600.17
  Q 226.69 630.38 227.40 655.10
  Q 228.39 689.08 241.88 719.78
  Z
  M 673.26 672.89
  Q 670.68 678.22 672.78 684.31
  Q 675.69 692.74 686.10 694.87
  Q 689.05 695.47 691.80 694.78
  C 695.43 693.88 698.95 692.95 702.80 692.95
  Q 757.96 692.82 815.47 693.01
  A 0.81 0.81 0.0 0 0 816.28 692.19
  L 816.12 664.32
  Q 816.11 663.74 815.53 663.74
  Q 757.13 663.86 697.89 663.76
  C 694.60 663.75 691.17 662.95 687.98 663.20
  Q 677.53 664.04 673.26 672.89
  Z
  M 554.61 693.29
  Q 560.43 692.96 566.66 692.97
  Q 586.23 693.00 607.55 692.94
  C 608.76 692.94 609.82 692.32 610.65 691.50
  Q 624.07 678.32 636.82 664.44
  A 0.39 0.38 21.0 0 0 636.53 663.80
  L 485.49 663.85
  Q 484.99 663.85 484.88 664.34
  Q 475.86 704.25 446.66 731.92
  Q 417.20 759.84 376.79 762.05
  Q 368.95 762.47 360.00 762.28
  Q 334.59 761.73 310.00 761.84
  Q 303.19 761.87 298.55 762.79
  C 291.08 764.28 284.34 771.25 280.15 777.50
  A 1.09 1.08 -49.2 0 0 280.24 778.82
  C 302.68 803.86 334.29 820.64 367.06 824.90
  C 377.06 826.20 387.19 826.39 397.09 825.87
  Q 438.66 823.70 474.44 799.79
  C 510.61 775.62 538.82 737.47 553.19 696.94
  Q 553.71 695.47 553.97 693.87
  Q 554.06 693.32 554.61 693.29
  Z
  M 728.35 723.84
  C 714.56 743.21 694.86 756.23 670.69 757.41
  Q 639.30 758.94 614.97 738.84
  Q 610.28 734.96 606.13 730.89
  A 0.51 0.50 -45.4 0 0 605.41 730.90
  Q 561.14 776.51 518.12 820.89
  Q 516.01 823.07 514.32 825.34
  Q 513.97 825.81 514.56 825.80
  Q 586.46 825.63 659.30 825.95
  Q 671.88 826.01 679.00 825.65
  Q 722.36 823.50 757.86 797.82
  Q 794.99 770.96 812.15 728.92
  Q 813.22 726.30 814.07 723.29
  A 0.45 0.44 3.3 0 0 813.57 722.73
  Q 811.79 723.00 809.82 722.99
  Q 769.68 722.84 730.19 722.89
  A 2.27 2.25 -72.1 0 0 728.35 723.84
  Z"
/>
<path fill="#fefefe" d="
  M 460.57 632.07
  Q 459.79 632.07 459.77 632.85
  C 459.22 661.32 449.07 688.21 429.07 707.57
  C 407.36 728.59 377.10 737.03 347.63 730.03
  Q 333.50 726.67 321.02 717.71
  C 300.80 703.21 288.56 681.74 285.48 656.94
  Q 284.61 649.93 284.70 639.59
  Q 284.84 621.58 284.71 600.29
  Q 284.71 599.72 285.28 599.72
  L 311.74 599.78
  A 0.56 0.56 0.0 0 1 312.30 600.34
  Q 312.22 620.87 312.51 641.91
  C 312.85 666.47 324.60 690.38 348.02 699.61
  C 366.28 706.80 387.22 703.64 402.70 692.04
  C 426.83 673.96 434.57 642.48 435.87 613.74
  Q 436.02 610.49 436.01 593.76
  Q 435.94 402.43 436.09 220.37
  A 0.35 0.35 0.0 0 0 435.74 220.02
  L 352.11 219.98
  A 0.13 0.13 0.0 0 1 352.01 219.77
  L 378.94 190.06
  Q 379.46 189.48 380.25 189.48
  L 501.32 189.46
  Q 501.94 189.46 501.95 190.09
  Q 502.17 428.15 501.83 629.73
  Q 501.83 630.60 501.78 631.52
  Q 501.75 632.01 501.26 632.01
  L 460.57 632.07
  Z"
/>
<path fill="#fefefe" d="
  M 567.47 285.26
  C 563.94 293.26 561.86 301.32 560.17 309.82
  Q 560.04 310.48 559.36 310.48
  L 532.44 310.43
  Q 531.96 310.43 531.96 309.94
  L 531.96 189.95
  Q 531.96 189.41 532.50 189.41
  Q 606.75 189.54 684.10 189.41
  C 750.08 189.29 806.10 245.66 815.59 309.51
  A 1.04 1.04 0.0 0 1 814.55 310.70
  L 786.68 310.40
  A 1.17 1.16 -4.4 0 1 785.54 309.43
  C 778.97 270.34 750.88 238.14 714.80 223.44
  C 690.46 213.53 663.31 212.67 638.35 220.64
  C 606.34 230.86 580.98 254.61 567.47 285.26
  Z"
/>
<path fill="#fefefe" d="
  M 713.99 256.82
  C 733.39 267.88 749.25 287.49 754.12 309.69
  A 0.64 0.64 0.0 0 1 753.49 310.47
  L 724.78 310.51
  Q 724.24 310.51 723.99 310.02
  Q 723.02 308.15 722.14 306.27
  C 713.12 286.97 694.69 275.03 673.82 274.49
  C 652.76 273.95 634.08 284.47 623.45 302.71
  C 622.07 305.08 621.03 307.68 619.63 310.00
  Q 619.36 310.46 618.83 310.46
  L 591.51 310.47
  Q 590.89 310.47 591.03 309.86
  C 603.46 255.64 666.16 229.55 713.99 256.82
  Z"
/>
<path fill="#fefefe" d="
  M 363.92 353.80
  Q 347.48 369.62 324.74 363.47
  Q 316.89 361.35 308.87 353.33
  C 299.28 343.75 295.16 328.43 298.94 315.35
  C 303.33 300.13 314.77 289.16 330.45 286.83
  Q 347.32 284.32 360.46 294.92
  Q 373.82 305.69 375.67 321.36
  C 375.91 323.39 377.14 325.17 378.59 326.52
  Q 398.47 344.99 405.51 352.20
  C 410.40 357.21 411.83 362.79 411.82 369.91
  Q 411.73 419.63 411.68 471.31
  Q 411.67 479.72 405.02 484.34
  C 400.46 487.52 393.56 486.62 389.27 482.98
  Q 384.16 478.63 384.18 471.20
  Q 384.30 425.19 384.21 372.91
  A 3.08 3.07 21.8 0 0 383.25 370.68
  L 365.45 353.80
  Q 364.68 353.07 363.92 353.80
  Z
  M 333.4889 337.9462
  A 12.56 12.33 104.2 0 0 348.5233 328.7946
  A 12.56 12.33 104.2 0 0 339.6511 313.5938
  A 12.56 12.33 104.2 0 0 324.6167 322.7454
  A 12.56 12.33 104.2 0 0 333.4889 337.9462
  Z"
/>
<ellipse fill="#001321" cx="0.00" cy="0.00" transform="translate(336.57,325.77) rotate(104.2)" rx="12.56" ry="12.33"/>
<path fill="#fefefe" d="
  M 709.03 342.02
  Q 713.72 342.44 718.30 342.44
  Q 766.95 342.45 815.52 342.45
  Q 816.11 342.45 816.11 343.05
  L 816.09 371.26
  A 0.61 0.61 0.0 0 1 815.48 371.87
  Q 764.21 371.81 718.00 371.76
  Q 714.62 371.76 711.47 372.06
  C 703.71 372.80 696.36 372.28 691.70 365.62
  C 688.70 361.33 688.18 355.80 690.54 351.05
  Q 695.65 340.80 709.03 342.02
  Z"
/>
<path fill="#fefefe" d="
  M 730.22 537.53
  Q 772.09 555.00 796.98 590.85
  C 805.38 602.94 813.23 617.56 815.82 631.44
  A 0.50 0.50 0.0 0 1 815.33 632.03
  L 742.12 631.92
  Q 741.57 631.92 741.31 631.44
  C 727.89 607.43 706.70 591.08 681.48 580.40
  Q 672.22 576.48 663.33 573.28
  Q 638.03 564.20 614.88 554.90
  Q 600.99 549.32 589.03 543.06
  Q 556.89 526.25 532.91 501.28
  C 532.19 500.53 531.98 499.53 531.97 498.52
  Q 531.87 425.28 532.00 342.88
  Q 532.00 342.42 532.46 342.42
  L 559.24 342.51
  Q 559.75 342.51 559.75 343.03
  Q 559.47 364.56 559.47 385.74
  C 559.47 422.00 572.88 455.44 599.63 479.94
  C 614.94 493.97 634.43 504.28 654.69 511.19
  Q 682.04 520.52 707.96 529.18
  Q 719.31 532.97 730.22 537.53
  Z"
/>
<path fill="#fefefe" d="
  M 751.52 480.86
  Q 787.64 495.00 815.48 518.22
  Q 816.27 518.88 816.27 519.91
  L 816.35 565.05
  Q 816.35 565.91 815.82 565.23
  C 807.99 555.31 799.16 545.14 789.37 537.04
  Q 767.60 519.01 741.58 508.46
  C 714.65 497.55 684.98 488.49 656.76 478.21
  Q 647.92 474.99 639.23 470.27
  C 609.76 454.25 592.31 426.53 590.45 393.37
  Q 589.66 379.38 590.18 343.01
  Q 590.19 342.43 590.77 342.43
  L 617.47 342.51
  Q 618.04 342.51 618.05 343.08
  Q 618.27 363.87 618.29 383.98
  C 618.32 408.39 629.47 430.28 650.11 442.96
  Q 658.99 448.42 668.02 451.67
  Q 692.26 460.42 722.30 470.29
  Q 736.08 474.81 751.52 480.86
  Z"
/>
<path fill="#fefefe" d="
  M 259.1642 562.1476
  A 39.35 38.76 81.4 0 1 214.9558 529.0360
  A 39.35 38.76 81.4 0 1 247.3958 484.3324
  A 39.35 38.76 81.4 0 1 291.6042 517.4440
  A 39.35 38.76 81.4 0 1 259.1642 562.1476
  Z
  M 251.2266 535.3267
  A 12.40 12.17 101.6 0 0 265.6414 525.6271
  A 12.40 12.17 101.6 0 0 256.2134 511.0333
  A 12.40 12.17 101.6 0 0 241.7986 520.7329
  A 12.40 12.17 101.6 0 0 251.2266 535.3267
  Z"
/>
<path fill="#fefefe" d="
  M 364.04 552.64
  Q 351.73 564.47 332.46 562.04
  C 323.43 560.91 314.69 555.34 308.99 548.48
  C 296.50 533.43 296.86 511.25 309.77 496.73
  C 322.62 482.28 346.04 479.58 361.63 491.33
  Q 377.66 503.41 377.95 523.97
  Q 377.95 524.37 378.20 524.69
  Q 380.55 527.70 383.35 530.29
  Q 393.26 539.45 403.06 548.53
  Q 409.96 554.92 411.23 562.44
  Q 411.89 566.32 411.78 576.64
  Q 411.57 595.97 411.61 615.51
  C 411.63 624.54 409.49 630.82 403.63 637.38
  Q 398.52 643.10 393.53 648.59
  C 391.95 650.33 390.33 652.35 390.08 654.76
  C 388.46 670.19 372.50 679.02 358.16 672.86
  C 341.58 665.75 339.02 642.56 353.74 632.01
  C 358.66 628.49 365.44 627.10 371.37 628.65
  A 1.28 1.26 -62.0 0 0 372.65 628.25
  Q 377.71 622.37 382.79 616.51
  Q 384.16 614.92 384.17 612.50
  Q 384.24 593.14 384.32 572.56
  A 3.96 3.95 -68.2 0 0 383.08 569.66
  L 365.09 552.64
  Q 364.56 552.14 364.04 552.64
  Z
  M 350.93 523.15
  A 12.39 12.39 0.0 0 0 338.54 510.76
  A 12.39 12.39 0.0 0 0 326.15 523.15
  A 12.39 12.39 0.0 0 0 338.54 535.54
  A 12.39 12.39 0.0 0 0 350.93 523.15
  Z"
/>
<ellipse fill="#001321" cx="0.00" cy="0.00" transform="translate(253.72,523.18) rotate(101.6)" rx="12.40" ry="12.17"/>
<circle fill="#001321" cx="338.54" cy="523.15" r="12.39"/>
<path fill="#fefefe" d="
  M 241.88 719.78
  Q 228.39 689.08 227.40 655.10
  Q 226.69 630.38 227.24 600.17
  Q 227.25 599.64 227.77 599.65
  L 253.98 599.77
  Q 254.51 599.77 254.51 600.31
  Q 254.18 624.07 254.35 646.27
  C 254.57 675.89 265.45 703.01 284.79 725.49
  A 0.74 0.74 0.0 0 1 284.63 726.59
  C 274.81 733.02 266.49 740.89 260.35 750.70
  Q 260.04 751.19 259.71 750.71
  Q 248.42 734.67 241.88 719.78
  Z"
/>
<path fill="#fefefe" d="
  M 673.26 672.89
  Q 677.53 664.04 687.98 663.20
  C 691.17 662.95 694.60 663.75 697.89 663.76
  Q 757.13 663.86 815.53 663.74
  Q 816.11 663.74 816.12 664.32
  L 816.28 692.19
  A 0.81 0.81 0.0 0 1 815.47 693.01
  Q 757.96 692.82 702.80 692.95
  C 698.95 692.95 695.43 693.88 691.80 694.78
  Q 689.05 695.47 686.10 694.87
  Q 675.69 692.74 672.78 684.31
  Q 670.68 678.22 673.26 672.89
  Z"
/>
<path fill="#fefefe" d="
  M 553.97 693.87
  Q 553.71 695.47 553.19 696.94
  C 538.82 737.47 510.61 775.62 474.44 799.79
  Q 438.66 823.70 397.09 825.87
  C 387.19 826.39 377.06 826.20 367.06 824.90
  C 334.29 820.64 302.68 803.86 280.24 778.82
  A 1.09 1.08 -49.2 0 1 280.15 777.50
  C 284.34 771.25 291.08 764.28 298.55 762.79
  Q 303.19 761.87 310.00 761.84
  Q 334.59 761.73 360.00 762.28
  Q 368.95 762.47 376.79 762.05
  Q 417.20 759.84 446.66 731.92
  Q 475.86 704.25 484.88 664.34
  Q 484.99 663.85 485.49 663.85
  L 636.53 663.80
  A 0.39 0.38 21.0 0 1 636.82 664.44
  Q 624.07 678.32 610.65 691.50
  C 609.82 692.32 608.76 692.94 607.55 692.94
  Q 586.23 693.00 566.66 692.97
  Q 560.43 692.96 554.61 693.29
  Q 554.06 693.32 553.97 693.87
  Z"
/>
<path fill="#fefefe" d="
  M 670.69 757.41
  C 694.86 756.23 714.56 743.21 728.35 723.84
  A 2.27 2.25 -72.1 0 1 730.19 722.89
  Q 769.68 722.84 809.82 722.99
  Q 811.79 723.00 813.57 722.73
  A 0.45 0.44 3.3 0 1 814.07 723.29
  Q 813.22 726.30 812.15 728.92
  Q 794.99 770.96 757.86 797.82
  Q 722.36 823.50 679.00 825.65
  Q 671.88 826.01 659.30 825.95
  Q 586.46 825.63 514.56 825.80
  Q 513.97 825.81 514.32 825.34
  Q 516.01 823.07 518.12 820.89
  Q 561.14 776.51 605.41 730.90
  A 0.51 0.50 -45.4 0 1 606.13 730.89
  Q 610.28 734.96 614.97 738.84
  Q 639.30 758.94 670.69 757.41
  Z"
/>
</svg>
